HIERARCHY
ROOT pelvis
{
  OFFSET 0 100 0
  CHANNELS 6 Xposition Yposition Zposition Zrotation Xrotation Yrotation
  JOINT pelvis_right_femur
  {
    OFFSET -10.78128 -3.44521 -0.5502486
    CHANNELS 3 Zrotation Xrotation Yrotation
    JOINT right_femur_tibia
    {
      OFFSET -0.8047443 -44.0398 -0.1307829
      CHANNELS 3 Zrotation Xrotation Yrotation
      JOINT right_tibia_foot
      {
        OFFSET 3.006224 -47.83518 -5
        CHANNELS 3 Zrotation Xrotation Yrotation
        End Site
        {
          OFFSET 0 -5 15
        }
      }
    }
  }
  JOINT pelvis_left_femur
  {
    OFFSET 10.78128 -3.44521 -0.5502486
    CHANNELS 3 Zrotation Xrotation Yrotation
    JOINT left_femur_tibia
    {
      OFFSET 0.8047443 -44.0398 -0.1307829
      CHANNELS 3 Zrotation Xrotation Yrotation
      JOINT left_tibia_foot
      {
        OFFSET -4.370144 -48.10324 -4.275266
        CHANNELS 3 Zrotation Xrotation Yrotation
        End Site
        {
          OFFSET 0 -5 15
        }
      }
    }
  }
  JOINT pelvis_spine1
  {
    OFFSET 0 6.468898 -3.129235
    CHANNELS 3 Zrotation Xrotation Yrotation
    JOINT spine1
    {
      OFFSET 0 23.15396 4.99043
      CHANNELS 3 Zrotation Xrotation Yrotation
      JOINT spine2
      {
        OFFSET 0 20.79997 -5.064912
        CHANNELS 3 Zrotation Xrotation Yrotation
        JOINT neck
        {
          OFFSET 0 14.38658 9.616178
          CHANNELS 3 Zrotation Xrotation Yrotation
          End Site
          {
            OFFSET 0 20 0
          }
        }
      }
      JOINT right_manubrium
      {
        OFFSET -5.722621 16.35077 3.967754
        CHANNELS 3 Zrotation Xrotation Yrotation
        JOINT right_clavicle
        {
          OFFSET -13.16364 1.694482 -4.693211
          CHANNELS 3 Zrotation Xrotation Yrotation
          JOINT right_humerus
          {
            OFFSET -28.5034 -0.3100689 -2.792744
            CHANNELS 3 Zrotation Xrotation Yrotation
            JOINT right_radius
            {
              OFFSET -25.15693 0.02248979 -1.271978
              CHANNELS 3 Zrotation Xrotation Yrotation
              End Site
              {
                OFFSET -15 0 0
              }
            }
          }
        }
      }
      JOINT left_manubrium
      {
        OFFSET 5.722621 16.35077 3.967754
        CHANNELS 3 Zrotation Xrotation Yrotation
        JOINT left_clavicle
        {
          OFFSET 13.16364 1.694482 -4.693211
          CHANNELS 3 Zrotation Xrotation Yrotation
          JOINT left_humerus
          {
            OFFSET 29.39168 -1.063119 -2.237045
            CHANNELS 3 Zrotation Xrotation Yrotation
            JOINT left_radius
            {
              OFFSET 24.59957 -0.9528479 0.9047498
              CHANNELS 3 Zrotation Xrotation Yrotation
              End Site
              {
                OFFSET 15 -0 -0
              }
            }
          }
        }
      }
    }
  }
}
MOTION
Frames: 13
Frame Time: 0.0416666666667
-1678.982 115.5181 689.777 -4.538682 10.06733 -164.653 1.19222 -2.324329 -8.413372 -0 23.96621 -0 -15.25522 7.055305 4.881515 -3.411202 -2.280203 -9.987336 -0 19.90262 -0 1.168528 -8.482727 17.56067 -0.6492852 0.1160926 4.955303 -1.863378 13.70696 -3.797272 0.1185323 23.07084 7.854657 8.412634 -15.31176 3.480035 1.591531 -21.4836 12.37563 87.2597 25.34029 -12.45757 -0 0 18.58653 -26.55027 8.994272 7.589951 8.645097 -25.08967 -10.55574 -91.19363 3.849144 19.83423 0 0 -5.103861 20.86921 13.79743 -16.77491
-1681.108 115.4946 684.939 -4.475072 10.09491 -165.0153 1.191852 -2.327735 -8.413534 -0 23.96657 -0 -15.25507 7.05597 4.881638 -3.411778 -2.277737 -9.987753 -0 19.90163 -0 1.169128 -8.48427 17.5607 -0.649519 0.1161221 4.954864 -1.863104 13.70684 -3.797592 0.1185545 23.07097 7.85479 8.412379 -15.31263 3.480486 1.591458 -21.48298 12.37558 87.26024 25.3403 -12.45856 -0 0 18.58494 -26.54968 8.993695 7.589803 8.645223 -25.08997 -10.55546 -91.19276 3.849938 19.83226 0 0 -5.10618 20.86968 13.79709 -16.77525
-1683.203 115.4711 680.0878 -4.41131 10.12214 -165.3776 1.191622 -2.331299 -8.413827 -0 23.96598 -0 -15.25482 7.056451 4.881624 -3.412294 -2.275242 -9.987888 -0 19.9012 -0 1.169713 -8.485863 17.56062 -0.649737 0.116165 4.954447 -1.862778 13.70675 -3.798015 0.118546 23.07108 7.854862 8.412095 -15.31349 3.480843 1.591236 -21.48239 12.37554 87.26098 25.34012 -12.45977 -0 0 18.58327 -26.54905 8.99309 7.5895 8.645342 -25.09044 -10.55527 -91.1918 3.850726 19.83015 0 0 -5.108881 20.8701 13.79674 -16.77565
-1685.268 115.4474 675.2237 -4.347399 10.14903 -165.7399 1.191535 -2.334858 -8.414233 -0 23.96448 -0 -15.2545 7.056732 4.881477 -3.412729 -2.272829 -9.987744 -0 19.90134 -0 1.170258 -8.487437 17.56044 -0.6499301 0.1162189 4.954072 -1.862416 13.70669 -3.798519 0.1185081 23.07118 7.854872 8.411796 -15.31431 3.481093 1.590877 -21.48186 12.37551 87.26186 25.33975 -12.46115 -0 0 18.58161 -26.54843 8.992487 7.58906 8.645449 -25.09105 -10.55519 -91.19078 3.851476 19.82799 0 0 -5.111832 20.87044 13.79639 -16.77609
-1687.303 115.4237 670.3469 -4.283341 10.17561 -166.1023 1.191589 -2.338257 -8.414732 -0 23.96219 -0 -15.25412 7.056809 4.881209 -3.413067 -2.270601 -9.987336 -0 19.90203 -0 1.17074 -8.488922 17.56017 -0.6500907 0.1162811 4.953752 -1.862036 13.70666 -3.799079 0.1184436 23.07126 7.854822 8.411495 -15.31505 3.48123 1.590403 -21.48141 12.37549 87.26284 25.33923 -12.46262 -0 0 18.58003 -26.54785 8.99191 7.588507 8.645539 -25.09178 -10.55521 -91.18977 3.852154 19.82588 0 0 -5.114895 20.87069 13.79607 -16.77654
-1689.307 115.3998 665.4574 -4.219136 10.20188 -166.4647 1.191779 -2.341352 -8.415297 -0 23.95922 -0 -15.25369 7.056685 4.880836 -3.413296 -2.268649 -9.986691 -0 19.90321 -0 1.171141 -8.490255 17.55984 -0.6502128 0.1163486 4.953501 -1.861654 13.70667 -3.799668 0.118356 23.07131 7.854716 8.411206 -15.31568 3.48125 1.589838 -21.48105 12.37549 87.26387 25.33857 -12.46413 -0 0 18.57859 -26.54731 8.991384 7.58787 8.64561 -25.09258 -10.55533 -91.18879 3.852735 19.82392 0 0 -5.117933 20.87085 13.79579 -16.77699
-1691.28 115.3757 660.5555 -4.154784 10.22786 -166.8273 1.19209 -2.344016 -8.415903 -0 23.95573 -0 -15.25324 7.056371 4.880378 -3.41341 -2.267051 -9.985846 -0 19.90481 -0 1.171446 -8.491384 17.55944 -0.6502923 0.1164182 4.953327 -1.861288 13.70671 -3.800259 0.1182502 23.07133 7.85456 8.41094 -15.31619 3.481157 1.58921 -21.4808 12.3755 87.26492 25.33782 -12.4656 -0 0 18.57735 -26.54685 8.990932 7.587179 8.645658 -25.09343 -10.55554 -91.18789 3.853195 19.82218 0 0 -5.120811 20.8709 13.79555 -16.77741
-1693.222 115.3516 655.6414 -4.090283 10.25355 -167.19 1.192506 -2.346147 -8.416521 -0 23.95189 -0 -15.25279 7.055889 4.879856 -3.413407 -2.265864 -9.984844 -0 19.90677 -0 1.171644 -8.492265 17.55902 -0.6503272 0.1164868 4.953234 -1.860952 13.70678 -3.800828 0.1181312 23.07133 7.854362 8.41071 -15.31655 3.480958 1.588549 -21.48066 12.37552 87.26593 25.337 -12.46697 -0 0 18.57637 -26.54649 8.990569 7.586466 8.645683 -25.09428 -10.55582 -91.18712 3.853518 19.82074 0 0 -5.123411 20.87086 13.79536 -16.77779
-1695.134 115.3273 650.7152 -4.025628 10.27895 -167.5528 1.193004 -2.34767 -8.417124 -0 23.94787 -0 -15.25235 7.055265 4.879297 -3.413292 -2.265127 -9.983734 -0 19.90896 -0 1.17173 -8.492868 17.55857 -0.6503174 0.1165515 4.953225 -1.860662 13.70687 -3.801348 0.1180048 23.0713 7.854134 8.410522 -15.31674 3.480666 1.587885 -21.48065 12.37556 87.26685 25.33616 -12.46818 -0 0 18.57567 -26.54623 8.99031 7.585763 8.645683 -25.09509 -10.55617 -91.18649 3.853695 19.81964 0 0 -5.125626 20.87072 13.79524 -16.77811
-1697.014 115.3029 645.777 -3.960817 10.30405 -167.9157 1.193561 -2.348537 -8.417685 -0 23.94387 -0 -15.25196 7.054531 4.878727 -3.413073 -2.264857 -9.982568 -0 19.91131 -0 1.171704 -8.493176 17.55813 -0.6502648 0.1166095 4.953297 -1.860428 13.70699 -3.8018 0.1178769 23.07125 7.853886 8.410386 -15.31678 3.480298 1.587246 -21.48074 12.3756 87.26766 25.33533 -12.46919 -0 0 18.57527 -26.54609 8.990161 7.5851 8.645661 -25.09583 -10.55656 -91.18603 3.853723 19.81892 0 0 -5.127371 20.8705 13.79518 -16.77836
-1698.864 115.2785 640.8271 -3.895846 10.32884 -168.2789 1.194149 -2.348732 -8.418181 -0 23.94005 -0 -15.25161 7.053723 4.878169 -3.412764 -2.265052 -9.981401 -0 19.91368 -0 1.171572 -8.493184 17.55772 -0.6501732 0.1166585 4.953444 -1.860258 13.70711 -3.802165 0.1177529 23.07118 7.853629 8.410304 -15.31665 3.47987 1.586661 -21.48095 12.37564 87.26832 25.33456 -12.46996 -0 0 18.57519 -26.54607 8.990127 7.584506 8.645616 -25.09647 -10.55698 -91.18576 3.853605 19.81861 0 0 -5.128587 20.87021 13.79519 -16.77854
-1700.683 115.2539 635.8657 -3.830711 10.35331 -168.6422 1.194742 -2.348268 -8.418593 -0 23.93659 -0 -15.25134 7.052878 4.87765 -3.41238 -2.265686 -9.980281 -0 19.91598 -0 1.171342 -8.492903 17.55734 -0.6500478 0.1166966 4.953657 -1.860158 13.70725 -3.802431 0.1176383 23.07109 7.853375 8.410278 -15.31638 3.479405 1.586153 -21.48124 12.3757 87.2688 25.33386 -12.47046 -0 0 18.57541 -26.54616 8.990204 7.584005 8.645553 -25.09699 -10.55741 -91.18568 3.853352 19.8187 0 0 -5.129237 20.86985 13.79526 -16.77863
-1702.47 115.2293 630.8928 -3.765408 10.37744 -169.0057 1.195314 -2.347189 -8.418906 -0 23.93361 -0 -15.25113 7.052036 4.877189 -3.411942 -2.266719 -9.979259 -0 19.91812 -0 1.171028 -8.492355 17.55702 -0.6498953 0.1167226 4.953925 -1.860129 13.70739 -3.802589 0.1175378 23.07099 7.853135 8.410309 -15.31597 3.478923 1.585741 -21.48162 12.37575 87.2691 25.33328 -12.47068 -0 0 18.57593 -26.54635 8.990386 7.583614 8.645475 -25.09736 -10.55783 -91.18578 3.852978 19.81918 0 0 -5.129312 20.86946 13.79538 -16.77864
